HIERARCHY
ROOT Hips
{
	OFFSET 0.000000 0.000000 0.000000
	CHANNELS 6 Xposition Yposition Zposition Xrotation Yrotation Zrotation
	JOINT Thigh.L
	{
		OFFSET 0.054572 0.026929 -0.094178
		CHANNELS 3 Xrotation Yrotation Zrotation
		JOINT Shin.L
		{
			OFFSET 0.059452 0.007292 -0.412298
			CHANNELS 3 Xrotation Yrotation Zrotation
			JOINT Foot.L
			{
				OFFSET -0.041614 0.031588 -0.437873
				CHANNELS 3 Xrotation Yrotation Zrotation
				JOINT Toe.L
				{
					OFFSET 0.047781 -0.126333 -0.064479
					CHANNELS 3 Xrotation Yrotation Zrotation
					End Site
					{
						OFFSET 0.000000 0.050000 0.000000
					}
				}
			}
		}
	}
	JOINT Thigh.R
	{
		OFFSET -0.059675 0.021451 -0.106695
		CHANNELS 3 Xrotation Yrotation Zrotation
		JOINT Shin.R
		{
			OFFSET -0.048560 0.015074 -0.393717
			CHANNELS 3 Xrotation Yrotation Zrotation
			JOINT Foot.R
			{
				OFFSET 0.013956 0.019825 -0.446982
				CHANNELS 3 Xrotation Yrotation Zrotation
				JOINT Toe.R
				{
					OFFSET -0.039383 -0.127185 -0.064318
					CHANNELS 3 Xrotation Yrotation Zrotation
					End Site
					{
						OFFSET 0.000000 0.050000 0.000000
					}
				}
			}
		}
	}
	JOINT Spine
	{
		OFFSET -0.002442 0.027193 0.113042
		CHANNELS 3 Xrotation Yrotation Zrotation
		JOINT Spine.2
		{
			OFFSET 0.008729 0.006384 0.139943
			CHANNELS 3 Xrotation Yrotation Zrotation
			JOINT Chest
			{
				OFFSET -0.010801 -0.022866 0.055652
				CHANNELS 3 Xrotation Yrotation Zrotation
				JOINT Neck
				{
					OFFSET -0.012003 0.026389 0.169679
					CHANNELS 3 Xrotation Yrotation Zrotation
					JOINT Head
					{
						OFFSET 0.025223 -0.020471 0.169652
						CHANNELS 3 Xrotation Yrotation Zrotation
						End Site
						{
							OFFSET 0.000000 0.050000 0.000000
						}
					}
				}
				JOINT Clavicle.L
				{
					OFFSET 0.047391 0.005108 0.087239
					CHANNELS 3 Xrotation Yrotation Zrotation
					JOINT UpperArm.L
					{
						OFFSET 0.126715 0.013353 0.058142
						CHANNELS 3 Xrotation Yrotation Zrotation
						JOINT ForeArm.L
						{
							OFFSET 0.270483 0.042468 -0.075446
							CHANNELS 3 Xrotation Yrotation Zrotation
							JOINT Hand.L
							{
								OFFSET 0.274159 0.001014 0.022073
								CHANNELS 3 Xrotation Yrotation Zrotation
								JOINT Thumb1.L
								{
									OFFSET 0.154612 0.000442 0.009630
									CHANNELS 3 Xrotation Yrotation Zrotation
									JOINT Thumb2.L
									{
										OFFSET 0.029903 0.000111 0.002408
										CHANNELS 3 Xrotation Yrotation Zrotation
										End Site
										{
											OFFSET 0.024919 0.000092 0.002006
										}
									}
								}
								JOINT Index1.L
								{
									OFFSET 0.137612 0.000442 0.009630
									CHANNELS 3 Xrotation Yrotation Zrotation
									JOINT Index2.L
									{
										OFFSET 0.029903 0.000111 0.002408
										CHANNELS 3 Xrotation Yrotation Zrotation
										JOINT Index3.L
										{
											OFFSET 0.021929 0.000081 0.001766
											CHANNELS 3 Xrotation Yrotation Zrotation
											End Site
											{
												OFFSET 0.017942 0.000066 0.001445
											}
										}
									}
								}
								JOINT Middle1.L
								{
									OFFSET 0.119612 0.000442 0.009630
									CHANNELS 3 Xrotation Yrotation Zrotation
									JOINT Middle2.L
									{
										OFFSET 0.030900 0.000114 0.002488
										CHANNELS 3 Xrotation Yrotation Zrotation
										JOINT Middle3.L
										{
											OFFSET 0.021929 0.000081 0.001766
											CHANNELS 3 Xrotation Yrotation Zrotation
											End Site
											{
												OFFSET 0.017942 0.000066 0.001445
											}
										}
									}
								}
								JOINT Ring1.L
								{
									OFFSET 0.101612 0.000442 0.009630
									CHANNELS 3 Xrotation Yrotation Zrotation
									JOINT Ring2.L
									{
										OFFSET 0.028906 0.000107 0.002327
										CHANNELS 3 Xrotation Yrotation Zrotation
										JOINT Ring3.L
										{
											OFFSET 0.019935 0.000074 0.001605
											CHANNELS 3 Xrotation Yrotation Zrotation
											End Site
											{
												OFFSET 0.016945 0.000063 0.001364
											}
										}
									}
								}
								JOINT Pinky1.L
								{
									OFFSET 0.085612 0.000442 0.009630
									CHANNELS 3 Xrotation Yrotation Zrotation
									JOINT Pinky2.L
									{
										OFFSET 0.023922 0.000088 0.001926
										CHANNELS 3 Xrotation Yrotation Zrotation
										JOINT Pinky3.L
										{
											OFFSET 0.016945 0.000063 0.001364
											CHANNELS 3 Xrotation Yrotation Zrotation
											End Site
											{
												OFFSET 0.013955 0.000052 0.001124
											}
										}
									}
								}
							}
						}
					}
				}
				JOINT Clavicle.R
				{
					OFFSET -0.048075 0.011205 0.086354
					CHANNELS 3 Xrotation Yrotation Zrotation
					JOINT UpperArm.R
					{
						OFFSET -0.109879 0.009692 0.054398
						CHANNELS 3 Xrotation Yrotation Zrotation
						JOINT ForeArm.R
						{
							OFFSET -0.288861 0.027374 -0.040143
							CHANNELS 3 Xrotation Yrotation Zrotation
							JOINT Hand.R
							{
								OFFSET -0.270404 0.014480 -0.005348
								CHANNELS 3 Xrotation Yrotation Zrotation
								JOINT Thumb1.R
								{
									OFFSET -0.154805 0.006415 -0.002369
									CHANNELS 3 Xrotation Yrotation Zrotation
									JOINT Thumb2.R
									{
										OFFSET -0.029951 0.001604 -0.000592
										CHANNELS 3 Xrotation Yrotation Zrotation
										End Site
										{
											OFFSET -0.024959 0.001337 -0.000494
										}
									}
								}
								JOINT Index1.R
								{
									OFFSET -0.137805 0.006415 -0.002369
									CHANNELS 3 Xrotation Yrotation Zrotation
									JOINT Index2.R
									{
										OFFSET -0.029951 0.001604 -0.000592
										CHANNELS 3 Xrotation Yrotation Zrotation
										JOINT Index3.R
										{
											OFFSET -0.021964 0.001176 -0.000434
											CHANNELS 3 Xrotation Yrotation Zrotation
											End Site
											{
												OFFSET -0.017971 0.000962 -0.000355
											}
										}
									}
								}
								JOINT Middle1.R
								{
									OFFSET -0.119805 0.006415 -0.002369
									CHANNELS 3 Xrotation Yrotation Zrotation
									JOINT Middle2.R
									{
										OFFSET -0.030950 0.001657 -0.000612
										CHANNELS 3 Xrotation Yrotation Zrotation
										JOINT Middle3.R
										{
											OFFSET -0.021964 0.001176 -0.000434
											CHANNELS 3 Xrotation Yrotation Zrotation
											End Site
											{
												OFFSET -0.017971 0.000962 -0.000355
											}
										}
									}
								}
								JOINT Ring1.R
								{
									OFFSET -0.101805 0.006415 -0.002369
									CHANNELS 3 Xrotation Yrotation Zrotation
									JOINT Ring2.R
									{
										OFFSET -0.028953 0.001550 -0.000573
										CHANNELS 3 Xrotation Yrotation Zrotation
										JOINT Ring3.R
										{
											OFFSET -0.019967 0.001069 -0.000395
											CHANNELS 3 Xrotation Yrotation Zrotation
											End Site
											{
												OFFSET -0.016972 0.000909 -0.000336
											}
										}
									}
								}
								JOINT Pinky1.R
								{
									OFFSET -0.085805 0.006415 -0.002369
									CHANNELS 3 Xrotation Yrotation Zrotation
									JOINT Pinky2.R
									{
										OFFSET -0.023961 0.001283 -0.000474
										CHANNELS 3 Xrotation Yrotation Zrotation
										JOINT Pinky3.R
										{
											OFFSET -0.016972 0.000909 -0.000336
											CHANNELS 3 Xrotation Yrotation Zrotation
											End Site
											{
												OFFSET -0.013977 0.000748 -0.000276
											}
										}
									}
								}
							}
						}
					}
				}
			}
		}
	}
}
MOTION
Frames: 7
Frame Time: 0.03333333
0.420314 0.671372 1.033976 -5.982902 4.317150 -24.438484 -27.764042 7.388219 -2.228095 8.564818 1.857943 5.148516 0.055663 0.555205 12.638599 -0.188625 -1.823431 -1.778039 10.528740 -8.748904 -3.564169 13.383979 -0.595469 5.756266 -16.380949 3.812207 -3.384135 -1.882244 -1.387065 0.545469 12.533236 0.885365 10.502822 -1.086814 -0.493896 -0.465375 1.554728 0.636448 3.855078 16.093603 -0.005818 2.536038 2.898035 -4.166599 3.300070 2.005298 21.788328 1.806562 21.987789 45.800256 -6.600978 20.168959 -0.769260 -24.549180 -1.250218 3.061646 -11.767699 0.000000 0.000000 0.000000 0.000000 0.000000 0.000000 0.000000 0.000000 0.000000 0.000000 0.000000 0.000000 0.000000 0.000000 0.000000 0.000000 0.000000 0.000000 0.000000 0.000000 0.000000 0.000000 0.000000 0.000000 0.000000 0.000000 0.000000 0.000000 0.000000 0.000000 0.000000 0.000000 0.000000 0.000000 0.000000 0.000000 0.000000 0.000000 0.000000 0.000000 0.000000 0.000000 0.883304 -15.951507 9.947494 19.163811 -38.453718 23.839386 15.641648 6.741468 46.367071 -6.374322 1.806941 11.328460 0.000000 0.000000 0.000000 0.000000 0.000000 0.000000 0.000000 0.000000 0.000000 0.000000 0.000000 0.000000 0.000000 0.000000 0.000000 0.000000 0.000000 0.000000 0.000000 0.000000 0.000000 0.000000 0.000000 0.000000 0.000000 0.000000 0.000000 0.000000 0.000000 0.000000 0.000000 0.000000 0.000000 0.000000 0.000000 0.000000 0.000000 0.000000 0.000000 0.000000 0.000000 0.000000
0.427183 0.682780 1.025626 -6.025267 4.970448 -24.946646 -26.272009 7.284423 -1.808761 6.991009 1.301243 5.366898 0.443914 0.271842 12.953884 -0.262845 -1.995009 -1.779976 10.915185 -9.567681 -3.515092 15.680667 -0.728559 6.062762 -18.931322 5.145193 -3.143713 -1.970510 -1.424216 0.613172 11.824142 0.768125 10.464083 -0.655068 -0.657662 -0.535349 1.450093 0.696539 3.907087 15.917644 -0.152240 3.197212 2.937506 -4.097588 3.257005 1.793887 21.780905 1.676273 22.168031 45.711785 -6.932940 19.973321 -0.791016 -23.874986 -0.587962 2.794265 -11.796667 0.000000 0.000000 0.000000 0.000000 0.000000 0.000000 0.000000 0.000000 0.000000 0.000000 0.000000 0.000000 0.000000 0.000000 0.000000 0.000000 0.000000 0.000000 0.000000 0.000000 0.000000 0.000000 0.000000 0.000000 0.000000 0.000000 0.000000 0.000000 0.000000 0.000000 0.000000 0.000000 0.000000 0.000000 0.000000 0.000000 0.000000 0.000000 0.000000 0.000000 0.000000 0.000000 0.780978 -16.501553 10.237665 19.517332 -38.305743 24.686068 16.226461 7.001797 45.869195 -5.417175 2.055049 11.482003 0.000000 0.000000 0.000000 0.000000 0.000000 0.000000 0.000000 0.000000 0.000000 0.000000 0.000000 0.000000 0.000000 0.000000 0.000000 0.000000 0.000000 0.000000 0.000000 0.000000 0.000000 0.000000 0.000000 0.000000 0.000000 0.000000 0.000000 0.000000 0.000000 0.000000 0.000000 0.000000 0.000000 0.000000 0.000000 0.000000 0.000000 0.000000 0.000000 0.000000 0.000000 0.000000
0.437691 0.694519 1.018614 -5.976237 5.199846 -25.243270 -25.817278 7.119089 -1.650839 7.694671 1.377944 5.748130 0.903704 -0.321153 13.297665 -0.298385 -2.104017 -1.782354 11.469748 -10.109120 -3.367907 17.019608 -0.827416 6.452465 -20.613721 6.077195 -3.048386 -2.022214 -1.436075 0.634016 11.115063 0.963809 10.483491 -0.313388 -0.768024 -0.579652 1.345197 0.802472 3.926212 15.852236 -0.430958 3.696617 3.121233 -4.070957 3.133084 1.675312 21.877247 1.598389 22.226042 45.293060 -7.241801 19.681495 -0.960378 -23.269353 0.394028 2.591070 -11.635754 0.000000 0.000000 0.000000 0.000000 0.000000 0.000000 0.000000 0.000000 0.000000 0.000000 0.000000 0.000000 0.000000 0.000000 0.000000 0.000000 0.000000 0.000000 0.000000 0.000000 0.000000 0.000000 0.000000 0.000000 0.000000 0.000000 0.000000 0.000000 0.000000 0.000000 0.000000 0.000000 0.000000 0.000000 0.000000 0.000000 0.000000 0.000000 0.000000 0.000000 0.000000 0.000000 0.797825 -17.173577 10.459122 19.947214 -38.248557 25.350757 16.690996 7.160236 45.147138 -4.605859 1.915605 11.520728 0.000000 0.000000 0.000000 0.000000 0.000000 0.000000 0.000000 0.000000 0.000000 0.000000 0.000000 0.000000 0.000000 0.000000 0.000000 0.000000 0.000000 0.000000 0.000000 0.000000 0.000000 0.000000 0.000000 0.000000 0.000000 0.000000 0.000000 0.000000 0.000000 0.000000 0.000000 0.000000 0.000000 0.000000 0.000000 0.000000 0.000000 0.000000 0.000000 0.000000 0.000000 0.000000
0.449918 0.705691 1.013778 -5.950386 5.174983 -25.474518 -25.662930 6.979497 -1.760111 9.241208 1.723955 6.029334 0.926443 -1.110765 13.489849 -0.334007 -2.204566 -1.791641 12.003108 -10.436977 -3.215012 18.039686 -0.851585 6.602912 -21.412686 6.632141 -2.916319 -2.054908 -1.415091 0.674481 10.496605 1.310641 10.574187 0.018544 -0.786416 -0.640199 1.265324 0.949388 3.959231 15.854619 -0.671093 4.002887 2.965698 -4.164236 2.978128 1.565426 21.796446 1.470108 22.339267 44.906517 -7.769074 19.499029 -1.207571 -23.047546 1.117739 2.563872 -11.577813 0.000000 0.000000 0.000000 0.000000 0.000000 0.000000 0.000000 0.000000 0.000000 0.000000 0.000000 0.000000 0.000000 0.000000 0.000000 0.000000 0.000000 0.000000 0.000000 0.000000 0.000000 0.000000 0.000000 0.000000 0.000000 0.000000 0.000000 0.000000 0.000000 0.000000 0.000000 0.000000 0.000000 0.000000 0.000000 0.000000 0.000000 0.000000 0.000000 0.000000 0.000000 0.000000 0.923534 -17.672686 10.678553 20.357581 -38.344195 25.969048 17.206875 7.320334 44.405349 -3.874445 1.503286 11.501857 0.000000 0.000000 0.000000 0.000000 0.000000 0.000000 0.000000 0.000000 0.000000 0.000000 0.000000 0.000000 0.000000 0.000000 0.000000 0.000000 0.000000 0.000000 0.000000 0.000000 0.000000 0.000000 0.000000 0.000000 0.000000 0.000000 0.000000 0.000000 0.000000 0.000000 0.000000 0.000000 0.000000 0.000000 0.000000 0.000000 0.000000 0.000000 0.000000 0.000000 0.000000 0.000000
0.466755 0.714893 1.011534 -6.050840 4.774740 -25.321827 -26.117167 6.717248 -1.963079 12.667007 2.821766 6.185066 0.600828 -2.043312 13.127149 -0.419225 -2.364388 -1.868094 12.372661 -10.575373 -3.184668 19.025860 -0.834015 6.564212 -21.085572 6.756072 -2.730093 -2.197793 -1.429426 0.768452 9.947939 1.957546 10.741092 0.273674 -0.722323 -0.689455 1.000736 1.133036 3.943521 15.630470 -0.971823 4.156112 2.919626 -4.273999 2.759015 1.639984 21.666761 1.339121 22.214859 44.684837 -8.371401 19.249871 -1.453600 -22.391922 2.006299 2.491288 -11.280004 0.000000 0.000000 0.000000 0.000000 0.000000 0.000000 0.000000 0.000000 0.000000 0.000000 0.000000 0.000000 0.000000 0.000000 0.000000 0.000000 0.000000 0.000000 0.000000 0.000000 0.000000 0.000000 0.000000 0.000000 0.000000 0.000000 0.000000 0.000000 0.000000 0.000000 0.000000 0.000000 0.000000 0.000000 0.000000 0.000000 0.000000 0.000000 0.000000 0.000000 0.000000 0.000000 1.255554 -18.059579 10.836767 21.007453 -38.448264 26.585238 18.128352 7.304769 43.259088 -2.892937 0.933984 11.115559 0.000000 0.000000 0.000000 0.000000 0.000000 0.000000 0.000000 0.000000 0.000000 0.000000 0.000000 0.000000 0.000000 0.000000 0.000000 0.000000 0.000000 0.000000 0.000000 0.000000 0.000000 0.000000 0.000000 0.000000 0.000000 0.000000 0.000000 0.000000 0.000000 0.000000 0.000000 0.000000 0.000000 0.000000 0.000000 0.000000 0.000000 0.000000 0.000000 0.000000 0.000000 0.000000
0.486327 0.732869 1.011838 -5.548450 4.031820 -25.128695 -26.407583 6.683076 -2.212995 14.798775 3.749945 6.220053 -0.009224 -2.846077 13.194521 -0.411994 -2.375748 -1.864677 12.989274 -10.532450 -3.006506 18.512250 -0.721790 7.093145 -19.349294 6.087798 -2.836454 -2.146905 -1.450446 0.805907 9.209212 2.477128 10.828373 0.407551 -0.492698 -0.605560 0.863635 1.247507 3.890228 15.496990 -0.957940 4.025061 3.228677 -4.382670 2.784447 1.705020 21.560463 1.393149 22.057352 44.278010 -8.678567 18.824169 -1.579821 -22.292724 2.625953 2.879183 -11.343193 0.000000 0.000000 0.000000 0.000000 0.000000 0.000000 0.000000 0.000000 0.000000 0.000000 0.000000 0.000000 0.000000 0.000000 0.000000 0.000000 0.000000 0.000000 0.000000 0.000000 0.000000 0.000000 0.000000 0.000000 0.000000 0.000000 0.000000 0.000000 0.000000 0.000000 0.000000 0.000000 0.000000 0.000000 0.000000 0.000000 0.000000 0.000000 0.000000 0.000000 0.000000 0.000000 1.412460 -18.122719 10.750284 21.764890 -38.698962 26.988936 18.691417 7.493655 42.995694 -2.394047 0.044235 11.051985 0.000000 0.000000 0.000000 0.000000 0.000000 0.000000 0.000000 0.000000 0.000000 0.000000 0.000000 0.000000 0.000000 0.000000 0.000000 0.000000 0.000000 0.000000 0.000000 0.000000 0.000000 0.000000 0.000000 0.000000 0.000000 0.000000 0.000000 0.000000 0.000000 0.000000 0.000000 0.000000 0.000000 0.000000 0.000000 0.000000 0.000000 0.000000 0.000000 0.000000 0.000000 0.000000
0.504228 0.752617 1.014773 -4.866067 3.260180 -24.875595 -26.176876 6.768834 -2.481948 15.736198 4.336829 6.137202 -0.018870 -3.138666 13.195760 -0.309355 -2.296035 -1.799258 13.394255 -10.384844 -2.759718 17.837025 -0.591094 7.571094 -16.618667 4.890916 -2.851861 -2.036577 -1.418171 0.827698 8.374862 2.853035 10.871228 0.407700 -0.203951 -0.436624 0.741121 1.304760 3.851208 15.416412 -0.687560 3.688571 3.269996 -4.613345 2.890081 1.751982 21.270528 1.558106 22.091294 44.068659 -8.898114 18.696848 -1.862582 -22.933293 2.806176 3.664929 -11.468786 0.000000 0.000000 0.000000 0.000000 0.000000 0.000000 0.000000 0.000000 0.000000 0.000000 0.000000 0.000000 0.000000 0.000000 0.000000 0.000000 0.000000 0.000000 0.000000 0.000000 0.000000 0.000000 0.000000 0.000000 0.000000 0.000000 0.000000 0.000000 0.000000 0.000000 0.000000 0.000000 0.000000 0.000000 0.000000 0.000000 0.000000 0.000000 0.000000 0.000000 0.000000 0.000000 1.680738 -17.920913 10.548089 22.373957 -39.128787 26.975341 19.042515 7.848792 43.444033 -2.054023 -0.965657 11.010595 0.000000 0.000000 0.000000 0.000000 0.000000 0.000000 0.000000 0.000000 0.000000 0.000000 0.000000 0.000000 0.000000 0.000000 0.000000 0.000000 0.000000 0.000000 0.000000 0.000000 0.000000 0.000000 0.000000 0.000000 0.000000 0.000000 0.000000 0.000000 0.000000 0.000000 0.000000 0.000000 0.000000 0.000000 0.000000 0.000000 0.000000 0.000000 0.000000 0.000000 0.000000 0.000000
